<?xml version="1.0" encoding="UTF-8" standalone="no"?>
<svg
   xmlns:dc="http://purl.org/dc/elements/1.1/"
   xmlns:cc="http://creativecommons.org/ns#"
   xmlns:rdf="http://www.w3.org/1999/02/22-rdf-syntax-ns#"
   xmlns:svg="http://www.w3.org/2000/svg"
   xmlns="http://www.w3.org/2000/svg"
   xmlns:sodipodi="http://sodipodi.sourceforge.net/DTD/sodipodi-0.dtd"
   xmlns:inkscape="http://www.inkscape.org/namespaces/inkscape"
   viewBox="0 0 200.00001 44.620998"
   height="44.620998"
   width="200"
   xml:space="preserve"
   id="svg2"
   version="1.1"
   sodipodi:docname="Logo_1.svg"
   inkscape:version="1.0.2 (e86c870879, 2021-01-15)"><sodipodi:namedview
     pagecolor="#ffffff"
     bordercolor="#666666"
     borderopacity="1"
     objecttolerance="10"
     gridtolerance="10"
     guidetolerance="10"
     inkscape:pageopacity="0"
     inkscape:pageshadow="2"
     inkscape:window-width="1280"
     inkscape:window-height="962"
     id="namedview67"
     showgrid="false"
     inkscape:zoom="2.385066"
     inkscape:cx="127.04003"
     inkscape:cy="139.44099"
     inkscape:window-x="-8"
     inkscape:window-y="-8"
     inkscape:window-maximized="1"
     inkscape:current-layer="svg2" /><metadata
     id="metadata8"><rdf:RDF><cc:Work
         rdf:about=""><dc:format>image/svg+xml</dc:format><dc:type
           rdf:resource="http://purl.org/dc/dcmitype/StillImage" /><dc:title></dc:title></cc:Work></rdf:RDF></metadata><defs
     id="defs6"><clipPath
   id="clipPath18"
   clipPathUnits="userSpaceOnUse"><path
     id="path16"
     d="M 0,768 H 1366 V 0 H 0 Z" /></clipPath>

















</defs><g
     id="g212"
     transform="matrix(0.28470128,0,0,0.28470128,-149.55125,-120.08505)"><g
       transform="matrix(1.3333333,0,0,-1.3333333,673.88692,462.03708)"
       id="g20"><path
         id="path22"
         style="fill:#1e82ff;fill-opacity:1;fill-rule:nonzero;stroke:none"
         d="m 0,0 c -15.981,28.354 -52.2,38.538 -80.897,22.748 -28.698,-15.79 -39.006,-51.576 -23.024,-79.929 15.982,-28.354 52.2,-38.538 80.897,-22.748 C 5.673,-64.139 15.981,-28.354 0,0 m -79.516,18.897 c 21.008,11.56 47.522,4.103 59.221,-16.652 11.698,-20.756 4.153,-46.953 -16.855,-58.512 -21.007,-11.559 -47.521,-4.103 -59.22,16.653 -11.699,20.756 -4.153,46.952 16.854,58.511 m 51.244,-90.478 c -26.087,-14.352 -59.011,-5.094 -73.538,20.679 -8.139,14.439 -8.777,30.998 -3.178,45.293 0.665,1.7 1.583,1.418 1.022,-0.306 -4.017,-12.348 -3.044,-26.246 3.847,-38.471 13.199,-23.416 43.111,-31.827 66.811,-18.787 23.701,13.041 32.213,42.595 19.015,66.011 -8.276,14.683 -23.124,23.467 -38.891,24.761 -1.5,0.123 -1.564,0.359 -1.528,0.554 0.042,0.233 0.07,0.387 1.732,0.336 18.392,-0.553 36.034,-10.374 45.637,-27.411 14.527,-25.775 5.157,-58.304 -20.929,-72.659" /></g><g
       transform="matrix(1.3333333,0,0,-1.3333333,591.90319,532.32681)"
       id="g24"><path
         id="path26"
         style="fill:#1e82ff;fill-opacity:1;fill-rule:nonzero;stroke:none"
         d="M 0,0 C 4.784,-0.42 9.386,0.127 13.632,1.461 14.043,1.59 13.891,2.19 13.467,2.113 10.705,1.608 7.798,1.514 4.809,1.898 -7.414,3.476 -17.257,13.256 -18.76,25.344 c -2.196,17.67 12.828,32.513 30.712,30.341 12.234,-1.486 22.132,-11.212 23.726,-23.289 0.39,-2.952 0.294,-5.824 -0.217,-8.552 -0.078,-0.419 0.53,-0.57 0.661,-0.164 1.35,4.197 1.903,8.745 1.478,13.472 C 36.179,52.939 23.535,65.96 7.618,67.927 -14.98,70.721 -33.979,51.948 -31.15,29.62 -29.157,13.895 -15.978,1.402 0,0" /></g><g
       transform="matrix(1.3333333,0,0,-1.3333333,755.26785,537.25268)"
       id="g28"><path
         id="path30"
         style="fill:#1e82ff;fill-opacity:1;fill-rule:nonzero;stroke:none"
         d="m 0,0 h -25.809 v 55.404 h 24.94 c 11.286,0 17.994,-5.603 17.994,-14.363 0,-6.708 -4.024,-11.049 -9.391,-12.628 C 14.206,27.071 18.389,21.389 18.389,15.075 18.389,5.92 11.681,0 0,0 m -3.473,44.592 h -8.839 V 32.991 h 8.839 c 4.42,0 6.866,1.972 6.866,5.761 0,3.789 -2.446,5.84 -6.866,5.84 m 0.947,-21.467 h -9.786 V 10.892 h 9.943 c 4.499,0 7.104,2.051 7.104,5.999 0,3.945 -2.763,6.234 -7.261,6.234" /></g><g
       transform="matrix(1.3333333,0,0,-1.3333333,808.20531,463.37961)"
       id="g32"><path
         id="path34"
         style="fill:#1e82ff;fill-opacity:1;fill-rule:nonzero;stroke:none"
         d="M 0,0 V -44.987 H 17.68 V -55.404 H -13.496 V 0 Z" /></g><path
       id="path38"
       style="fill:#1e82ff;fill-opacity:1;fill-rule:nonzero;stroke:none;stroke-width:1.33333"
       d="m 840.09465,463.37961 h 17.99467 v 44.196 c 0,8.736 4.31333,13.78667 12.83866,13.78667 8.52267,0 13.048,-5.05067 13.048,-13.78667 v -44.196 h 17.99467 v 44.092 c 0,20.41467 -14.31067,30.51733 -31.35867,30.51733 -17.15333,0 -30.51733,-10.10266 -30.51733,-30.51733 z" /><g
       transform="matrix(1.3333333,0,0,-1.3333333,959.85238,477.79628)"
       id="g40"><path
         id="path42"
         style="fill:#1e82ff;fill-opacity:1;fill-rule:nonzero;stroke:none"
         d="M 0,0 H -20.441 V -11.208 H -2.368 V -21.625 H -20.441 V -33.779 H 0 V -44.592 H -33.937 V 10.813 H 0 Z" /></g><g
       transform="matrix(1.3333333,0,0,-1.3333333,1017.5242,506.84055)"
       id="g44"><path
         id="path46"
         style="fill:#1e82ff;fill-opacity:1;fill-rule:nonzero;stroke:none"
         d="M 0,0 H -20.994 V -22.808 H -34.49 v 55.404 h 13.496 V 10.892 H 0 V 32.596 H 13.496 V -22.808 H 0 Z" /></g><path
       id="path50"
       style="fill:#1e82ff;fill-opacity:1;fill-rule:nonzero;stroke:none;stroke-width:1.33333"
       d="m 1083.4058,537.98828 c -20.9427,0 -37.9893,-15.67867 -37.9893,-37.88267 0,-22.204 17.0466,-37.77866 37.9893,-37.77866 21.0453,0 37.7773,15.57466 37.7773,37.77866 0,22.204 -16.8346,37.88267 -37.7773,37.88267 m 0,-16.416 c 11.7853,0 19.468,-8.524 19.468,-21.46667 0,-13.15333 -7.6827,-21.468 -19.468,-21.468 -11.9973,0 -19.5733,8.31467 -19.5733,21.468 0,12.94267 7.576,21.46667 19.5733,21.46667" /><g
       transform="matrix(1.3333333,0,0,-1.3333333,1149.1832,463.37961)"
       id="g52"><path
         id="path54"
         style="fill:#1e82ff;fill-opacity:1;fill-rule:nonzero;stroke:none"
         d="M 0,0 V -44.987 H 17.678 V -55.404 H -13.496 V 0 Z" /></g><g
       transform="matrix(1.3333333,0,0,-1.3333333,1182.5289,463.37961)"
       id="g56"><path
         id="path58"
         style="fill:#1e82ff;fill-opacity:1;fill-rule:nonzero;stroke:none"
         d="m 0,0 v -55.405 h 33.937 v 10.813 H 13.496 v 12.154 H 31.568 V -22.02 H 13.496 v 11.207 H 33.937 V 0 Z" /></g></g></svg>
