<svg height="387.088" width="1234.334" xmlns="http://www.w3.org/2000/svg"><path d="M1003.747 386.396c-35.329-4.477-47.234-18.717-51.862-62.033-1.946-18.217-.826-58.087 2.097-74.667 6.154-34.895 24.939-48.596 66.685-48.633 46.88-.042 65.098 13.813 67.018 50.967l.672 13h-49.69l-.01-7.667c-.014-16.56-5.567-24.333-17.38-24.333-8.526 0-14.762 5.12-17.432 14.314-2.583 8.891-2.634 85.009-.062 93.563 3.445 11.462 13.634 17.149 23.797 13.28 7.815-2.973 10.042-7.288 11.594-22.46l1.368-13.364h48.791l-.023 9.667c-.047 19.454-5.951 36.604-15.486 44.976-5.903 5.182-15.74 9.756-25.428 11.823-9.681 2.064-33.99 2.917-44.649 1.567zm146.593-.01c-29.46-3.716-43.828-17.14-47.575-44.452-.788-5.737-1.432-11.887-1.432-13.667v-3.237H1150.308l.66 9.225c.818 11.42 4.006 17.353 10.696 19.9 10.39 3.954 22.336-2.677 22.336-12.399 0-12.466-7.047-19.379-34.66-33.999-22.786-12.064-31.724-18.248-36.637-25.348-7.146-10.327-10.146-26.55-7.515-40.625 5.385-28.806 28.696-42.125 70.714-40.404 21.557.883 31.856 3.961 41.121 12.291 3.928 3.531 7.744 8.571 9.394 12.407 2.741 6.372 5.553 20.14 5.573 27.285l.01 3.667h-49.333v-8.103c0-7.178-.445-8.547-3.898-12-3.293-3.293-4.956-3.897-10.727-3.897-8.656 0-13.375 4-13.375 11.339 0 10.625 4.46 14.933 29.488 28.482 23.666 12.81 38.062 23.198 42.806 30.885 5.092 8.252 8.166 23.423 7.195 35.504-1.964 24.423-13.753 38.386-37.55 44.472-11.826 3.024-33.54 4.28-46.266 2.674zM0 293.658V204.74l44.333.662c33.838.506 46.507 1.164 53.513 2.78 23.737 5.474 33.241 15.629 38.35 40.974 2.272 11.272 2.33 72.854.082 86.177-4.333 25.674-13.976 37.27-36.62 44.03-5.573 1.664-16.389 2.201-53.325 2.65L0 382.573Zm72.421 55.21c5.767-2.963 10.348-8.52 12.462-15.117 1.607-5.014 2.305-13.998 2.75-35.387 1.042-50.05-3.332-59.652-27.819-61.07l-10.48-.606v113.676H59.42c5.548 0 11.398-.673 13-1.496zm116.912 7.06c0-25.515-.122-26.736-3.517-35-1.934-4.71-13.291-32.714-25.238-62.23l-21.722-53.667h52.655l11.066 39.333c6.086 21.633 11.271 39.333 11.523 39.333.251 0 6.272-17.7 13.38-39.333l12.922-39.333h25.288c23.448 0 25.24.17 24.624 2.333-.366 1.283-12.136 29.528-26.156 62.765l-25.491 60.432v51.803h-49.334zm117.334-62.23V205.03h71.513l14.438 69.666c7.941 38.317 14.95 70.237 15.577 70.934.63.702 1.138-30.363 1.138-69.667V205.03H448v177.333h-35.91c-33.058 0-35.963-.185-36.575-2.333-.365-1.284-6.727-31.734-14.137-67.667s-14.011-66.533-14.669-68c-.725-1.617-1.23 25.008-1.285 67.667l-.09 70.333h-38.667zm159.198 86.362c.714-4.014 9.792-38.063 20.869-81.696 11.076-43.633 21.037-82.493 22.136-86.355l1.998-7.022 35.41.355 35.41.355 23.177 85.334c12.748 46.933 23.534 86.683 23.968 88.333l.79 3h-26.187c-29.447 0-26.019.888-26.725-1.667-.256-.928-2.136-8.716-4.088-17.333l-3.55-15.667h-44.805l-2.248 10.334c-1.235 5.683-2.983 13.333-3.882 17l-1.636 6.666-25.683.363c-26.767.378-25.454.816-24.954-2zm96.802-64.235c0-1.964-17.405-73.977-18.03-74.602-.946-.946-1.54 1.645-9.044 39.474l-7.208 36.334h17.14c9.428 0 17.142-.543 17.142-1.206zm84-22.148V204.99l39.625.353 39.626.353 8.92 59.77c4.907 32.872 9.182 60.028 9.5 60.347.486.485 8.444-46.796 17.917-106.45l2.276-14.333H844v177.333h-45.31l-.345-71.44-.345-71.441-12.48 67.774a121129.38 121129.38 0 0 1-13.166 71.44l-.687 3.667h-27.744c-31.352 0-27.506.49-28.437-2.333-.42-1.272-6.147-32.334-12.812-69-6.664-36.667-12.645-68.167-13.29-70-.704-2.001-1.216 25.582-1.279 69L688 382.363h-41.333zm229.333.02V205.03h49.333v177.333H876ZM31.286 173.072c-9.807-3.205-18.318-10.221-22.564-18.6-5.53-10.913-7.486-23.83-8.315-54.912-1.576-59.082 4.387-81.866 24.26-92.706 18.921-10.321 50.316-8.76 63.509 3.16 8.563 7.736 12.107 16.517 13.73 34.016l.835 9H76v-7.718c0-15.113-8.845-25.616-21.573-25.616-12.532 0-20.413 6.107-24.606 19.064-2.858 8.83-4.237 72.166-1.943 89.214 2.677 19.888 8.981 27.799 22.96 28.81 16.41 1.187 25.136-7.69 26.236-26.69l.602-10.398h13.162c15.137 0 14.047-1.452 11.814 15.749-1.58 12.163-4.86 19.7-11.897 27.335-8.529 9.252-16.236 11.97-35.422 12.49-13.143.356-17.436-.037-24.047-2.198zm581.693 1.247c-18.842-4.716-27.496-16.626-29.758-40.956l-.899-9.667h26.626l.824 8.822c.956 10.238 4.031 17.22 9.27 21.051 5.25 3.838 19.882 4.505 26.265 1.198 13.431-6.959 15.541-29.19 3.909-41.192-2.344-2.418-12.68-9.68-22.972-16.137-10.294-6.46-22.449-15.365-27.02-19.797-7.33-7.104-8.662-9.209-11.281-17.831-7.16-23.575 1.456-46.395 20.738-54.924 15.054-6.66 38.93-6.288 53.48.831 12.076 5.908 19.172 18.822 19.172 34.888v7.091h-24.966l-.875-7.448c-1.735-14.764-7.814-20.538-21.628-20.547-6.245-.004-9.19.699-12.667 3.022-13.243 8.847-11.995 31.198 2.325 41.62 3.037 2.211 12.849 8.762 21.805 14.557 23.804 15.405 28.48 19.441 32.836 28.343 3.157 6.454 3.85 9.792 4.286 20.655.668 16.616-1.871 25.384-9.954 34.374-9.012 10.024-16.152 12.51-37.162 12.945-9.533.198-19.592-.206-22.354-.898zM202.667 88.25V3.467l35 .448 35 .448 7.942 4c9.77 4.92 14.651 10.913 17.334 21.28 6.246 24.13-1.334 46.903-18.216 54.724l-6.42 2.975 6.111 1.711c7.679 2.15 13.096 7.486 15.121 14.897.864 3.16 2.11 16.346 2.77 29.3.66 12.955 1.613 27.205 2.118 31.667l.917 8.113h-26.799l-.722-8.334c-.398-4.583-1.068-17.237-1.49-28.12-1.34-34.583-4.05-38.27-28.87-39.293L228 96.687V173.03h-25.333zm59.132-13.789c8.84-4.279 10.868-8.944 10.868-25 0-11.711-.384-14.083-2.806-17.333-5.325-7.143-10.231-8.889-26.756-9.521L228 22.027v56.738l14.103-.799c10.178-.576 15.66-1.552 19.696-3.506zM428 141.074v-31.956l-21.486-50.377C394.696 31.033 384.726 7.313 384.358 6.03c-.607-2.117.631-2.334 13.322-2.334h13.991l7.98 21a7348.06 7348.06 0 0 1 15.032 39.955c3.878 10.426 7.476 18.692 7.996 18.37.52-.32 7.749-18.3 16.063-39.954l15.118-39.37h13.213c10.039 0 13.051.4 12.541 1.666-.369.917-10.933 24.539-23.476 52.493l-22.805 50.827V173.03H428zM803.678 98.03l-.345-75-19.666-.37L764 22.293V3.696h104v18.667h-38.667V173.03h-25.311Zm152.925-9.334 24.223-84.333 16.663-.371 16.662-.371 22.971 81.704c12.634 44.938 23.32 83.055 23.747 84.705.765 2.961.606 3-12.447 3H1035.2l-5.244-20-5.244-20-28.023.004-28.022.004-5.26 19.996-5.26 19.997H932.38l24.222-84.334zm62.064 23.634c0-1.677-20.869-81.372-21.188-83.967-.704-5.723-.633-4.512-2.579 2.667-2.459 9.076-20.233 80.554-20.233 81.298 0 .386 9.9.702 22 .702s22-.315 22-.7zM1152 88.363V3.696h25.333V153.03h53.334v20H1152Z" style="fill:#333;fill-opacity:1;stroke-width:1"/></svg>